<?xml version="1.0" encoding="UTF-8"?>
<!-- Generated by Pixelmator Pro 3.8 -->
<svg width="2653" height="689" viewBox="0 0 2653 689" xmlns="http://www.w3.org/2000/svg">
    <g id="-">
        <path id="path1" fill="#f4f7fa" fill-rule="evenodd" stroke="none" d="M 2401.5 688.445313 C 2392.149902 688.638916 2382.475098 688.611572 2380 688.384521 C 2377.524902 688.157227 2370.324951 687.503906 2364 686.932617 C 2357.675049 686.361084 2347.126465 685.009033 2340.558594 683.927734 C 2333.990967 682.84668 2323.904785 680.804443 2318.144775 679.389648 C 2312.38501 677.974854 2303.808594 675.560791 2299.086182 674.024902 C 2294.36377 672.489258 2285.774902 669.312256 2280 666.965088 C 2274.225098 664.61792 2265.675049 660.6604 2261 658.170898 C 2256.324951 655.681152 2248 650.712158 2242.5 647.128418 C 2237 643.544434 2228.449951 637.384277 2223.5 633.438721 C 2218.550049 629.493408 2210.675049 622.49292 2206 617.882568 C 2201.324951 613.272217 2194.333008 605.675049 2190.462402 601 C 2186.591797 596.324951 2181.614746 589.800049 2179.4021 586.5 C 2177.189697 583.199951 2173.061035 576.449951 2170.227539 571.5 C 2167.393799 566.550049 2163.031494 557.873779 2160.533203 552.219482 C 2158.034912 546.565186 2154.242188 536.665283 2152.104492 530.219482 C 2149.966797 523.773926 2147.291504 513.550049 2146.15918 507.5 C 2145.026855 501.449951 2143.598145 494.025146 2142.984131 491 C 2142.370117 487.975098 2141.610352 475.375 2141.295654 463 C 2140.850586 445.481201 2141.101563 436.98877 2142.430176 424.639893 C 2143.368896 415.916992 2145.025391 404.666992 2146.111572 399.639893 C 2147.197998 394.613037 2149.638672 385.498047 2151.535645 379.384521 C 2153.432861 373.270752 2156.775146 363.967041 2158.963379 358.709229 C 2161.151611 353.45166 2165.456055 344.3125 2168.528809 338.399902 C 2171.601807 332.487549 2177.42749 322.66626 2181.475098 316.574951 C 2185.522705 310.483643 2191.799316 301.82373 2195.423096 297.330566 C 2199.046875 292.837402 2206.171631 285.015625 2211.255859 279.94873 C 2216.340088 274.88208 2224.774902 267.162598 2230 262.794678 C 2235.225098 258.426514 2244.225098 251.709717 2250 247.868408 C 2255.774902 244.0271 2266.800049 237.776123 2274.5 233.977051 C 2282.199951 230.178223 2293.449951 225.185303 2299.5 222.881836 C 2305.550049 220.578369 2315 217.388428 2320.5 215.792969 C 2326 214.19751 2334.550049 212.032959 2339.5 210.98291 C 2344.449951 209.932861 2353 208.368896 2358.5 207.507324 C 2364 206.645996 2376.149902 205.673584 2385.5 205.346924 C 2394.95459 205.016357 2409.379639 205.251953 2418 205.877686 C 2426.524902 206.496338 2437.890137 207.663574 2443.255859 208.471436 C 2448.621338 209.279297 2458.420898 211.284424 2465.032471 212.92749 C 2471.643799 214.570557 2482.778809 217.843506 2489.776611 220.200928 C 2496.774414 222.55835 2509.024902 227.689453 2517 231.603271 C 2524.975098 235.51709 2537.125 242.443115 2544 246.994385 C 2550.875 251.545898 2560.550049 258.543945 2565.5 262.545898 C 2570.449951 266.547852 2578.149658 273.574707 2582.610352 278.161133 C 2587.071045 282.747559 2593.71167 290.059814 2597.367432 294.410889 C 2601.023193 298.761963 2607.360596 307.312012 2611.450439 313.410889 C 2615.540039 319.509766 2621.141846 328.59668 2623.898438 333.60376 C 2626.655273 338.610596 2630.692627 346.756592 2632.870605 351.705811 C 2635.04834 356.654785 2638.845703 367.408203 2641.309082 375.602051 C 2643.772217 383.795898 2646.756836 395.190186 2647.94165 400.922607 C 2649.126221 406.655029 2650.73999 417.680176 2651.528076 425.422607 C 2652.315918 433.165283 2652.968018 443.550049 2652.977295 448.5 C 2652.986572 453.449951 2652.338867 464.311279 2651.537842 472.63623 C 2650.737061 480.961182 2649.156494 492.211182 2648.025879 497.63623 C 2646.89502 503.061279 2644.626465 512.541016 2642.984375 518.702148 C 2641.342285 524.863281 2638.483154 534.091309 2636.630615 539.208496 C 2634.77832 544.325928 2630.903076 553.235107 2628.019287 559.006348 C 2625.135254 564.777832 2619.708252 574.449951 2615.959229 580.5 C 2612.210205 586.550049 2605.310059 596.273193 2600.625732 602.107422 C 2595.941162 607.94165 2587.27832 617.292236 2581.374512 622.886963 C 2575.470703 628.481689 2566.851074 635.912598 2562.219238 639.400391 C 2557.587646 642.887939 2549.20874 648.509766 2543.599365 651.893066 C 2537.98999 655.276367 2528.463623 660.247314 2522.429688 662.939941 C 2516.395752 665.632324 2505.843018 669.724609 2498.979492 672.033691 C 2486.5 676.232178 2486.5 676.232178 2474.691895 675.621338 C 2468.197266 675.285645 2457.397217 674.079102 2450.691895 672.940186 C 2443.986328 671.801514 2434 669.479736 2428.5 667.780518 C 2423 666.081299 2414.528809 662.979492 2409.675049 660.887695 C 2404.821289 658.795898 2397.846191 655.214844 2394.175049 652.929443 C 2390.503662 650.644287 2384.350098 646.710449 2380.5 644.187744 C 2376.649902 641.664795 2367.609863 633.728027 2360.410889 626.550537 C 2352.687988 618.850342 2344.426758 609.400146 2340.260742 603.5 C 2336.377197 598 2331.408203 589.899902 2329.218506 585.5 C 2327.028809 581.099854 2323.652344 573.449951 2321.715088 568.5 C 2319.778076 563.550049 2317.257568 555.560059 2316.114014 550.744629 C 2314.970459 545.929199 2313.505371 538.012451 2312.858398 533.151611 C 2312.115234 527.570557 2311.597168 519.097656 2312 510 C 2312.351074 502.076172 2313.597412 492.574951 2314.378906 489 C 2315.160645 485.425049 2316.772705 479.574951 2317.961426 476 C 2319.149902 472.425049 2321.943848 465.902588 2324.169922 461.505615 C 2326.39624 457.108643 2329.808105 451.11499 2331.751953 448.186279 C 2333.696045 445.257813 2338.702148 439.230469 2342.877197 434.79248 C 2347.052002 430.354492 2353.625 424.494629 2357.483887 421.770264 C 2361.342773 419.045898 2367.425049 415.336426 2371 413.526611 C 2374.574951 411.717041 2381.198486 409.069824 2385.718994 407.644287 C 2390.239258 406.21875 2398.905273 404.499756 2404.976807 403.824707 C 2413.610596 402.864746 2418.081055 402.858154 2425.495117 403.794434 C 2430.708984 404.453125 2439.043945 406.300537 2444.017578 407.899902 C 2448.990967 409.499268 2456.249512 412.702637 2460.147705 415.018311 C 2464.045654 417.333984 2470.616211 422.439941 2474.748779 426.364258 C 2478.881348 430.288818 2484.027832 436.098877 2486.185547 439.275391 C 2488.343262 442.45166 2491.424316 447.832275 2493.032227 451.231934 C 2494.640137 454.631836 2496.688721 460.70874 2497.584717 464.736572 C 2498.75 469.973877 2499.096191 475.255127 2498.800293 483.279785 C 2498.473145 492.152832 2497.794922 496.27832 2495.55835 503 C 2494.00293 507.675049 2488.515869 513.094482 2488 514 C 2487.134766 515.518799 2489.033936 512.098145 2489 511 C 2488.987061 510.580078 2489.795654 505.78125 2490 500 C 2490.251709 492.880859 2489.434326 487.557617 2488.01416 483.764404 C 2486.833252 480.609863 2484.064697 475.329834 2481.861816 472.031006 C 2479.658936 468.732178 2475.751221 464.230469 2473.178223 462.027588 C 2470.605225 459.824463 2466.024902 456.701904 2463 455.088623 C 2459.975098 453.475098 2454.43457 451.445068 2450.687988 450.577637 C 2446.941406 449.709961 2441.091309 449.002686 2437.687988 449.005859 C 2434.284668 449.009033 2428.925781 449.43335 2425.779297 449.94873 C 2422.633057 450.464111 2417.169678 452.323486 2413.638428 454.080811 C 2410.107422 455.838379 2404.391357 459.794434 2400.936035 462.87207 C 2397.480713 465.949951 2392.959961 471.088867 2390.889893 474.291748 C 2388.81958 477.494873 2385.972412 483.578613 2384.562988 487.811279 C 2382.387695 494.343018 2382 497.304932 2382 507.395752 C 2382 516.381104 2382.488525 520.925293 2384.000977 526.003174 C 2385.101563 529.69873 2387.394287 535.37207 2389.096191 538.611084 C 2390.798096 541.850098 2393.564941 546.300049 2395.244873 548.5 C 2396.924561 550.699951 2400.264893 554.38501 2402.667969 556.688721 C 2405.070801 558.992676 2409.759033 562.53125 2413.086182 564.552246 C 2416.41333 566.573486 2422.367676 569.451172 2426.317871 570.947021 C 2430.268066 572.443115 2436.75 574.261719 2440.722168 574.98877 C 2445.648438 575.890137 2451.688965 576.108398 2459.722168 575.675049 C 2469.386475 575.154053 2473.294434 574.432129 2481.5 571.652832 C 2487 569.789795 2494.316406 566.892578 2497.758545 565.2146 C 2501.200684 563.536377 2507.028809 560.01416 2510.710205 557.387451 C 2514.391357 554.760498 2520.697021 549.482422 2524.722656 545.658691 C 2528.748291 541.834717 2534.009277 535.734619 2536.413818 532.103027 C 2538.818359 528.471436 2542.830811 521.437988 2545.330322 516.473145 C 2547.82959 511.508301 2550.968262 504.083252 2552.304932 499.973145 C 2553.641602 495.862793 2555.582275 488.225098 2556.617676 483 C 2558.090576 475.566162 2558.5 469.041504 2558.5 453 C 2558.5 437.053467 2558.085693 430.389648 2556.634277 423 C 2555.608154 417.774902 2553.270996 408.987305 2551.44043 403.47168 C 2549.610107 397.956055 2546.309326 389.522461 2544.105713 384.72998 C 2541.9021 379.937744 2538.251465 372.90625 2535.99292 369.104736 C 2533.734619 365.303223 2528.371826 357.981689 2524.075684 352.834961 C 2519.779785 347.687988 2513.359375 340.759033 2509.808105 337.437012 C 2506.25708 334.115234 2499.37915 328.416016 2494.52417 324.772217 C 2489.668945 321.128174 2480.927246 315.685303 2475.098389 312.676514 C 2469.269287 309.667725 2460.08667 305.567627 2454.692627 303.565186 C 2449.29834 301.5625 2439.623535 298.849365 2433.192627 297.535889 C 2426.761719 296.222168 2416.256348 294.596191 2409.847656 293.922363 C 2400.737793 292.9646 2395.500732 292.957764 2385.847656 293.891846 C 2379.056396 294.548828 2369.225098 295.991211 2364 297.096924 C 2358.774902 298.202881 2350.449951 300.458008 2345.5 302.108643 C 2340.550049 303.759033 2331.100098 307.736816 2324.5 310.947998 C 2317.899902 314.158936 2307.550049 320.289063 2301.5 324.570313 C 2295.449951 328.851563 2286.449951 336.442871 2281.5 341.440186 C 2276.550049 346.437256 2269.473389 354.565918 2265.773926 359.503662 C 2262.074707 364.441406 2256.755127 372.620117 2253.952637 377.678955 C 2251.150146 382.737549 2246.812744 392.19165 2244.313721 398.688232 C 2241.814941 405.18457 2238.710205 414.765869 2237.414551 419.979736 C 2236.118896 425.193604 2234.320801 435.768555 2233.418945 443.479736 C 2232.257813 453.408203 2231.969238 461.002197 2232.429932 469.5 C 2232.787842 476.100098 2233.700928 486.225098 2234.458984 492 C 2235.217041 497.775146 2237.002441 507.095459 2238.426514 512.712158 C 2239.850586 518.328857 2242.185059 526.203857 2243.614258 530.212158 C 2245.043457 534.220459 2247.817871 541.324951 2249.779541 546 C 2251.741211 550.675049 2255.796631 559.225098 2258.79126 565 C 2261.785889 570.774902 2267.346924 580 2271.149414 585.5 C 2274.951904 591 2281.784424 599.772949 2286.333252 604.995605 C 2290.881836 610.218262 2299.305176 618.695313 2305.051758 623.833496 C 2310.79834 628.971924 2318.199951 635.093506 2321.5 637.437256 C 2324.800049 639.781006 2332.093994 644.4646 2337.708984 647.844727 C 2343.32373 651.225098 2351.648926 655.828369 2356.208984 658.073975 C 2360.769043 660.31958 2368.774902 663.859863 2374 665.941406 C 2379.225098 668.022705 2387.100098 670.873779 2391.5 672.276855 C 2395.899902 673.679688 2405.574951 676.056396 2413 677.557861 C 2420.425049 679.05957 2428.524902 680.646484 2431 681.084473 C 2433.475098 681.522461 2438.73584 681.907715 2442.690918 681.94043 C 2446.645996 681.973145 2450.146484 682.428223 2450.469727 682.951172 C 2450.793213 683.474365 2449.357178 684.347412 2447.278809 684.891113 C 2445.200439 685.435059 2437.875 686.37793 2431 686.986572 C 2424.125 687.595215 2410.850098 688.251465 2401.5 688.445313 Z M 1538.644043 687.857666 C 1527.564941 687.779297 1514.449951 687.380859 1509.5 686.972656 C 1504.550049 686.564453 1496 685.468018 1490.5 684.536377 C 1485 683.604736 1476.449951 681.787598 1471.5 680.498535 C 1466.550049 679.209229 1458.449951 676.748535 1453.5 675.030029 C 1448.550049 673.311523 1441.125 670.473877 1437 668.723877 C 1432.875 666.973877 1426.574951 664.007813 1423 662.132324 C 1419.425049 660.256836 1413.36499 656.705811 1409.533325 654.241211 C 1405.701782 651.776611 1399.176758 647.139404 1395.033325 643.936035 C 1390.890015 640.73291 1384.698853 635.499268 1381.275269 632.306152 C 1377.851685 629.112793 1371.927856 623.008545 1368.111328 618.741211 C 1364.294678 614.474121 1357.950073 606.14917 1354.012207 600.241211 C 1350.074219 594.333496 1344.236816 584.099854 1341.040161 577.5 C 1337.843384 570.899902 1333.371826 560.056885 1331.103271 553.404297 C 1328.834717 546.751709 1326.044067 537.07666 1324.901733 531.904297 C 1323.759399 526.731934 1322.193604 518.449951 1321.421997 513.5 C 1320.650513 508.550049 1319.518677 495.949951 1318.906982 485.5 C 1318.163696 472.801758 1317.911743 426.866211 1318.147339 347 C 1318.5 227.5 1318.5 227.5 1320.873901 222.720703 C 1322.179565 220.092041 1324.821411 216.644287 1326.744629 215.059082 C 1328.667847 213.473633 1332.186279 211.687012 1334.563477 211.088379 C 1337.178223 210.429932 1350.189819 210 1367.5 210 C 1385.355835 210 1397.791626 210.422363 1400.575317 211.123291 C 1403.878906 211.955078 1406.150146 213.485352 1409.329346 217.021484 C 1411.690552 219.647705 1414.157349 223.581787 1414.811157 225.76416 C 1415.702271 228.738525 1416 261.289795 1416 355.76001 C 1416 436.227783 1416.378174 485.531982 1417.046265 492.144043 C 1417.621704 497.839844 1419.0271 506.550049 1420.169434 511.5 C 1421.311646 516.449951 1423.320557 523.378662 1424.633667 526.896973 C 1425.946655 530.415283 1428.389282 535.986572 1430.061646 539.277588 C 1431.734009 542.568604 1435.155151 548.239746 1437.664185 551.880615 C 1440.173218 555.52124 1444.987671 561.341309 1448.363037 564.814209 C 1451.738403 568.287109 1457.28894 573.130615 1460.697754 575.577393 C 1464.106445 578.024414 1470.181396 581.782715 1474.197754 583.929443 C 1478.213989 586.076172 1484.875 588.972412 1489 590.365723 C 1493.125 591.758789 1499.425049 593.603271 1503 594.464111 C 1506.574951 595.325195 1514.675049 596.694336 1521 597.506592 C 1527.324951 598.319092 1536.238281 598.987549 1540.807373 598.991943 C 1545.376465 598.996338 1552.351318 598.526855 1556.307373 597.94873 C 1560.263428 597.370605 1567.248291 596.215576 1571.82959 595.381836 C 1576.410889 594.548096 1582.787598 593.026123 1586 592 C 1589.212646 590.973633 1595.277832 588.546143 1599.478271 586.605225 C 1603.678955 584.664551 1610.352051 580.937256 1614.307861 578.32251 C 1618.263428 575.707764 1623.929199 571.303223 1626.897949 568.53418 C 1629.866943 565.765381 1634.907227 560.20459 1638.098877 556.176758 C 1641.290283 552.148926 1646.175293 544.273926 1648.954102 538.676758 C 1651.73291 533.07959 1654.922363 525.350098 1656.04126 521.5 C 1657.1604 517.650146 1658.714355 511.350098 1659.494629 507.5 C 1660.274902 503.650146 1661.381348 496.449951 1661.953857 491.5 C 1662.621338 485.726563 1662.995361 437.303955 1662.99707 356.427979 C 1662.999756 243.033447 1663.162354 229.879883 1664.614014 225.619385 C 1665.501709 223.013916 1667.358398 219.539063 1668.739746 217.897461 C 1670.121338 216.255615 1673.107422 213.919434 1675.375732 212.706055 C 1679.324219 210.593994 1680.799561 210.48584 1710 210.165039 C 1735.995361 209.879639 1741.269775 210.070068 1745.712402 211.454346 C 1748.648926 212.369385 1752.31665 214.470703 1754.113281 216.26709 C 1755.866943 218.020752 1758.124023 221.265625 1759.128906 223.477783 C 1760.868164 227.306152 1760.957031 233.754395 1760.978027 357.324463 C 1760.999023 481.557129 1760.912842 487.861084 1758.979004 503.671875 C 1757.867432 512.759277 1755.838623 524.931396 1754.470703 530.720947 C 1753.102783 536.510742 1750.152832 546.704346 1747.915283 553.373779 C 1745.677734 560.043213 1741.387207 570.540039 1738.380859 576.700195 C 1735.374268 582.860352 1731.043701 590.735352 1728.757324 594.200195 C 1726.470947 597.665039 1721.885742 604.099854 1718.568115 608.5 C 1715.250244 612.899902 1709.152588 620.053955 1705.017822 624.397705 C 1700.883057 628.741455 1694.540039 634.816406 1690.922363 637.897705 C 1687.304688 640.979004 1680.876221 645.975098 1676.636963 649 C 1672.397461 652.025146 1666.357422 655.987061 1663.2146 657.804443 C 1660.071533 659.621826 1654.800049 662.406494 1651.5 663.992432 C 1648.199951 665.578613 1643.024902 667.97876 1640 669.326416 C 1636.975098 670.674072 1631.209473 672.952148 1627.187744 674.38916 C 1623.166016 675.826172 1614.616211 678.316162 1608.187744 679.922852 C 1601.759521 681.529297 1592.675049 683.536133 1588 684.382813 C 1583.324951 685.229492 1574.839844 686.389648 1569.144043 686.960938 C 1563.448242 687.532471 1549.723389 687.936035 1538.644043 687.857666 Z M 902 681.347656 C 861.025024 681.431396 823 681.177979 817.5 680.78418 C 812 680.390381 802.775024 679.359375 797 678.49292 C 791.224976 677.626465 781.775024 675.765137 776 674.356445 C 770.224976 672.947754 761.224976 670.299072 756 668.470703 C 750.775024 666.64209 744.25 664.265381 741.5 663.188965 C 738.75 662.112793 733.574951 659.832764 730 658.122314 C 726.425049 656.411865 720.768677 653.512451 717.430298 651.679199 C 714.092041 649.845947 705.470703 644.462891 698.271851 639.717041 C 691.072998 634.970947 680.296753 626.840332 674.324585 621.648682 C 668.352539 616.457031 658.973877 607.167236 653.483154 601.00415 C 647.992432 594.841309 640.89624 586.170166 637.713867 581.734863 C 634.531494 577.299561 629.428345 569.217285 626.373413 563.774414 C 623.318359 558.331299 618.643677 549.292969 615.984985 543.688965 C 613.326294 538.085205 609.571411 528.688721 607.640869 522.808105 C 605.710205 516.92749 602.933472 507.252441 601.470337 501.308105 C 600.007202 495.36377 598.178467 485.324951 597.406372 479 C 596.634277 472.675049 595.716797 460.75 595.367432 452.5 C 594.900513 441.473389 595.179321 433.394287 596.419922 422 C 597.348267 413.474854 599.022705 402.224854 600.140991 397 C 601.259399 391.774902 603.436768 383.224854 604.979858 378 C 606.522827 372.774902 609.469604 364.224854 611.52832 359 C 613.586914 353.774902 616.970459 346.125 619.047241 342 C 621.123901 337.875 625.409302 330.224854 628.57019 325 C 631.731079 319.774902 636.383423 312.559082 638.908691 308.9646 C 641.433838 305.370117 647.373169 297.945068 652.107178 292.4646 C 656.841064 286.984131 665.166016 278.418457 670.607178 273.429932 C 676.048218 268.441162 683.425049 262.108887 687 259.35791 C 690.574951 256.606934 696.650024 252.30249 700.5 249.792725 C 704.349976 247.282715 711.747681 242.880859 716.939331 240.010742 C 722.130981 237.140625 730.456055 232.998535 735.439331 230.806152 C 740.422729 228.613525 747.348389 225.762451 750.829712 224.469971 C 754.311035 223.177734 761.923462 220.704102 767.746216 218.973145 C 773.56897 217.242188 781.295654 215.173096 784.916504 214.375244 C 788.537476 213.577393 795.775024 212.2771 801 211.48584 C 806.224976 210.694336 819.050049 209.5354 829.5 208.9104 C 842.083008 208.157715 876.025513 207.914795 930 208.191162 C 1009.997437 208.60083 1011.583008 208.646729 1016 210.689453 C 1018.474976 211.833984 1021.773071 214.121338 1023.329102 215.772461 C 1024.885132 217.423584 1026.777832 220.512695 1027.535156 222.637207 C 1028.579712 225.567383 1028.91748 233.380615 1028.934204 255 C 1028.953735 280.46167 1028.761963 283.927246 1027.13501 287.508545 C 1026.133423 289.713135 1023.675781 292.955322 1021.673584 294.713379 C 1019.671387 296.471436 1016.338257 298.383545 1014.266602 298.962646 C 1011.792603 299.654297 978.75647 300.123047 918 300.329102 C 825.5 300.642578 825.5 300.642578 814 303.189941 C 807.675049 304.591064 798.224976 307.174316 793 308.930664 C 787.775024 310.687012 779.900024 313.941895 775.5 316.163818 C 771.099976 318.385498 763.03125 323.161133 757.56958 326.775879 C 752.107788 330.390869 744.28418 336.532471 740.183594 340.424316 C 736.08313 344.315918 729.877563 351.147705 726.393433 355.605957 C 722.909424 360.064453 717.808716 367.535156 715.058472 372.207764 C 712.30835 376.880371 708.725464 384.032715 707.096558 388.101807 C 705.467529 392.170654 702.953613 399.550049 701.509888 404.5 C 700.066162 409.449951 698.348267 417.099854 697.692505 421.5 C 697.036621 425.899902 696.5 437.176025 696.5 446.557617 C 696.5 458.04541 697.057251 466.895752 698.206543 473.662842 C 699.145142 479.188965 701.549805 488.613281 703.550171 494.605225 C 705.550537 500.597412 709.417725 509.850342 712.143799 515.167236 C 714.869873 520.484131 719.40332 527.90918 722.218018 531.667236 C 725.032593 535.425293 729.130371 540.47876 731.324219 542.897461 C 733.517944 545.315918 738.469971 550.192139 742.328613 553.733154 C 746.187256 557.27417 752.596191 562.365723 756.570557 565.047607 C 760.544922 567.729492 767.434692 571.758057 771.880981 574 C 776.327393 576.242188 782.850952 579.162598 786.377808 580.490234 C 789.904663 581.817627 796.549927 583.871826 801.145142 585.054932 C 805.740356 586.238281 813.099976 587.907471 817.5 588.76416 C 824.320679 590.092529 839.357422 590.366699 919.5 590.624756 C 1010.724365 590.918457 1013.622681 590.98584 1017.653442 592.903809 C 1019.937744 593.990723 1022.913086 596.369629 1024.265259 598.189941 C 1025.617432 600.010498 1027.235962 603.029541 1027.861938 604.89917 C 1028.611206 607.137207 1028.985962 618.068848 1028.95874 636.89917 C 1028.919189 664.336914 1028.827759 665.682373 1026.70874 669.98584 C 1025.38208 672.680176 1022.769897 675.675049 1020.16748 677.48584 C 1015.834839 680.5 1015.834839 680.5 996.16748 680.847656 C 985.350342 681.038818 942.974976 681.263916 902 681.347656 Z M 189 680.635254 C 33.930603 680.97876 28.364685 680.92749 24.5 679.121582 C 22.299988 678.093506 19.286377 675.958008 17.80304 674.376221 C 16.319702 672.794189 14.407227 669.826904 13.55304 667.782227 C 12.261353 664.689941 12.003723 658.884521 12.021973 633.282227 C 12.041687 605.671387 12.231567 602.086914 13.86499 598.491455 C 14.866577 596.286621 17.324219 593.044434 19.326416 591.286377 C 21.328674 589.528564 24.661804 587.610596 26.733398 587.02417 C 29.30304 586.297119 78.802979 585.862549 182.5 585.657227 C 322.811768 585.379395 335.076721 585.222412 342 583.614258 C 346.125 582.65625 352.299683 580.96875 355.721558 579.864014 C 359.143433 578.759521 364.722595 576.509521 368.119751 574.86377 C 371.516907 573.218262 376.8172 570.259277 379.898193 568.28833 C 382.979187 566.317383 388.58905 561.733887 392.364502 558.102539 C 396.140015 554.471191 401.072144 548.800049 403.324768 545.5 C 405.577454 542.199951 408.846863 536.22168 410.590149 532.214844 C 412.333496 528.208008 414.550354 521.162354 415.516602 516.558105 C 416.918518 509.877686 417.173279 505.087402 416.777832 492.843506 C 416.34967 479.586426 415.912842 476.412109 413.565308 469.5 C 412.070984 465.100098 409.5177 459.002441 407.891296 455.949707 C 406.264893 452.896973 402.209473 447.380371 398.879211 443.690674 C 395.549011 440.000732 390.276306 435.034668 387.16217 432.654785 C 384.047974 430.274902 378.575012 426.707031 375 424.726318 C 371.424988 422.745361 365.060242 419.750488 360.856079 418.071289 C 356.651917 416.39209 349.001953 413.890137 343.856079 412.511475 C 338.710266 411.132813 329.325012 409.124268 323 408.048096 C 316.674988 406.971924 307 405.416748 301.5 404.592041 C 296 403.767578 286.775024 402.398193 281 401.549072 C 275.224976 400.699951 260.825012 398.653076 249 397.000732 C 237.174988 395.348145 223.224976 393.311523 218 392.474609 C 212.775024 391.637695 201.525024 389.834961 193 388.46875 C 184.474976 387.102539 172.775024 385.043945 167 383.894287 C 161.224976 382.744385 151.325012 380.472412 145 378.845459 C 138.674988 377.218506 127.424988 373.868164 120 371.400391 C 112.575012 368.932617 101.899902 364.716553 96.277649 362.03125 C 90.655334 359.346191 81.814209 354.653076 76.630798 351.602539 C 71.447327 348.552002 63.89917 343.568115 59.857056 340.5271 C 55.814941 337.486328 48.968018 331.51123 44.641663 327.249268 C 40.315308 322.987061 34.21051 316.125 31.075439 312 C 27.940308 307.875 23.697021 301.710205 21.645874 298.300293 C 19.594727 294.890625 16.409363 288.815674 14.567383 284.800293 C 12.725342 280.785156 9.63208 272.550049 7.69342 266.5 C 5.754761 260.449951 3.429016 252.125 2.525085 248 C 1.496704 243.306885 0.657227 233.201904 0.282104 221 C -0.104553 208.422119 0.111084 197.595215 0.889587 190.5 C 1.553406 184.449951 2.940491 175.675049 3.972046 171 C 5.003601 166.324951 7.211426 158.359375 8.878418 153.298828 C 10.545349 148.238037 14.185059 139.272705 16.966614 133.375732 C 19.748169 127.47876 24.898376 118.336426 28.41156 113.059326 C 31.924683 107.782227 38.46405 99.316406 42.943481 94.246582 C 47.422913 89.177002 54.748657 81.860352 59.2229 77.987549 C 63.697205 74.114746 71.167236 68.411621 75.823059 65.313721 C 80.478882 62.21582 86.135864 58.643799 88.394104 57.375488 C 90.652344 56.107422 97.213867 52.743652 102.975281 49.900635 C 108.736755 47.057617 120.211731 42.499756 128.475281 39.772461 C 136.738892 37.044922 148.674988 33.735352 155 32.417725 C 161.325012 31.100342 172.575012 29.307129 180 28.433105 C 191.860168 27.037109 210.454224 26.883789 333.078003 27.172119 C 472.656006 27.5 472.656006 27.5 476.348511 30.31665 C 478.379517 31.865723 480.712646 34.157959 481.533447 35.410645 C 482.781372 37.315186 483.04126 43.534668 483.120605 73.38208 C 483.215454 109.075928 483.215454 109.075928 480.658691 112.939453 C 479.005981 115.437012 476.227661 117.715576 472.801025 119.384277 C 467.5 121.965576 467.5 121.965576 329 122.259277 C 190.5 122.553223 190.5 122.553223 179.5 125.675781 C 173.450012 127.393066 164.429321 130.553223 159.454102 132.698242 C 154.478821 134.843262 146.912598 139.014648 142.640259 141.968018 C 138.36792 144.921631 132.467346 150.077393 129.527954 153.425293 C 126.588562 156.773438 122.10083 162.884766 119.555298 167.006348 C 116.885925 171.328369 113.573059 178.732422 111.728088 184.5 C 108.718018 193.909912 108.528381 195.38916 108.514587 209.568359 C 108.503479 221.05542 108.937134 226.284424 110.339233 231.568359 C 111.350769 235.380859 113.099487 240.524902 114.22522 243 C 115.350952 245.475098 117.956909 249.974854 120.016235 253 C 122.075562 256.024902 125.726807 260.565674 128.130188 263.090332 C 130.533569 265.615234 134.974976 269.510742 138 271.74707 C 141.025024 273.983643 147.161377 277.650879 151.636353 279.896484 C 156.111389 282.14209 164.436401 285.531006 170.136353 287.427246 C 175.836365 289.32373 184.099976 291.573486 188.5 292.426758 C 192.900024 293.280029 205.5 295.332275 216.5 296.987305 C 227.5 298.642334 245.724976 301.33374 257 302.968018 C 268.275024 304.602539 285.150024 307.067871 294.5 308.446533 C 303.849976 309.825195 317.575012 311.877686 325 313.007813 C 332.424988 314.137695 344.575012 316.202393 352 317.595703 C 359.424988 318.989258 371.002136 321.469238 377.72699 323.107178 C 384.451904 324.745117 394.80188 327.69751 400.72699 329.668213 C 406.652161 331.63916 415.775024 335.017578 421 337.176025 C 426.224976 339.334473 434.775024 343.377686 440 346.160889 C 445.224976 348.944092 453.099976 353.582764 457.5 356.46875 C 461.900024 359.354736 469.498291 365.264404 474.385132 369.601074 C 479.271973 373.937988 486.974365 382.136475 491.501465 387.819824 C 496.028564 393.503174 502.095825 402.28125 504.984131 407.32666 C 507.872437 412.37207 511.594727 419.875 513.255737 424 C 514.91687 428.125 517.130981 434.425049 518.176147 438 C 519.221191 441.574951 520.973022 448.775146 522.069092 454 C 523.165039 459.225098 524.557495 469.350098 525.163452 476.5 C 525.7854 483.839844 525.987793 495.813477 525.628296 504 C 525.278076 511.975098 524.048218 524.125 522.895264 531 C 521.74231 537.875 518.985962 549.125 516.770142 556 C 514.554321 562.875 510.851196 572.324951 508.541016 577 C 506.230835 581.675049 502.424561 588.649902 500.08252 592.5 C 497.740479 596.349854 493.335205 602.750977 490.292969 606.724609 C 487.250732 610.698242 479.297852 619.248047 472.619873 625.724609 C 465.942017 632.201172 457.119324 639.75 453.013916 642.5 C 448.908508 645.25 442.163391 649.451904 438.02478 651.837646 C 433.886169 654.223389 427.615356 657.52832 424.089722 659.182129 C 420.564026 660.835938 414.489075 663.454102 410.589722 665.000244 C 406.690369 666.546631 399 669.164795 393.5 670.818604 C 388 672.472412 379.900024 674.565674 375.5 675.470215 C 371.099976 676.374512 363.450012 677.82666 358.5 678.697266 C 350.601074 680.086182 329.864502 680.323486 189 680.635254 Z M 1168.365845 680.990234 C 1139.135498 680.980713 1138.3927 680.930664 1133.459106 678.633301 C 1130.686646 677.342041 1127.243164 674.889404 1125.806885 673.182373 C 1124.370728 671.475586 1122.370361 667.923828 1121.361816 665.289551 C 1119.603638 660.697266 1119.529663 651.640869 1119.565552 445.384277 C 1119.595703 272.403564 1119.856445 229.409668 1120.896973 225.884277 C 1121.772583 222.91748 1123.857422 219.875977 1127.345459 216.476563 C 1131.404419 212.520996 1133.63208 211.192627 1137.826294 210.226563 C 1141.361694 209.412354 1152.64917 209 1171.396973 209 C 1199.641357 209 1199.641357 209 1205.063843 211.75 C 1208.311035 213.396973 1211.755737 216.1875 1213.651001 218.707031 C 1215.391724 221.020752 1217.307251 225.205566 1217.907959 228.006348 C 1218.677979 231.59668 1219 295.734375 1219 445.5 C 1219 593.615479 1218.673584 659.423584 1217.921631 662.929932 C 1217.145386 666.549561 1215.637573 669.294434 1212.538696 672.729004 C 1209.580933 676.007324 1206.669434 678.047607 1203.23291 679.25 C 1198.897583 680.76709 1194.25415 680.998779 1168.365845 680.990234 Z M 1889.929199 681.005127 C 1859.358643 681 1859.358643 681 1853.936768 678.25 C 1850.459473 676.486328 1847.55835 674.070068 1845.8479 671.512695 C 1844.380859 669.319824 1842.690186 665.082275 1842.090332 662.095947 C 1841.340088 658.360352 1841 619.970459 1841 539.033203 C 1841 466.321289 1841.399902 416.263428 1842.047119 407.949951 C 1842.622803 400.55249 1843.957764 389.26709 1845.013428 382.871338 C 1846.069336 376.475586 1848.113281 366.800537 1849.555908 361.371338 C 1850.998291 355.942139 1854.218994 346.324951 1856.713135 340 C 1859.207031 333.675049 1863.901855 323.627197 1867.145996 317.671875 C 1870.390137 311.716553 1875.243408 303.584961 1877.931152 299.602051 C 1880.618896 295.618896 1885.487305 289.016602 1888.750244 284.929932 C 1892.012939 280.843506 1899.627686 272.737549 1905.671875 266.916748 C 1911.716064 261.096191 1920.900146 253.397461 1926.080566 249.808594 C 1931.26123 246.219727 1939.935303 240.69043 1945.356201 237.520752 C 1950.777344 234.351318 1959.178223 230.038086 1964.025146 227.936035 C 1968.87207 225.83374 1976.590088 222.789307 1981.176758 221.17041 C 1985.763184 219.551758 1994.237061 217.046387 2000.007813 215.603027 C 2005.778564 214.159668 2014.550049 212.308838 2019.5 211.489746 C 2024.449951 210.670898 2036.375 209.496582 2046 208.880371 C 2055.625 208.26416 2077.225098 207.926514 2094 208.129883 C 2122.966797 208.481445 2124.701172 208.608398 2128.5 210.658447 C 2130.699951 211.845459 2133.670166 214.095459 2135.100342 215.658447 C 2136.530518 217.221191 2138.442871 220.421631 2139.350342 222.770264 C 2140.741699 226.371582 2141 231.404785 2141 254.906006 C 2141 282.771484 2141 282.771484 2138.206543 288.118652 C 2136.4646 291.453613 2133.798828 294.601318 2131.123291 296.48291 C 2126.833252 299.5 2126.833252 299.5 2101.666504 299.709717 C 2087.824951 299.825195 2067.274902 300.341309 2056 300.856445 C 2039.345215 301.617432 2033.662842 302.272949 2025.706055 304.350098 C 2020.319336 305.756348 2011.94873 308.656006 2007.104736 310.793701 C 2002.260498 312.931152 1994.467285 317.176758 1989.786133 320.228027 C 1985.105225 323.279297 1978.09668 328.77417 1974.211914 332.438721 C 1970.327148 336.103516 1964.376465 343.149414 1960.988281 348.096436 C 1957.600098 353.043457 1953.347656 360.333008 1951.538818 364.29541 C 1949.729736 368.257813 1947.302979 374.649902 1946.145752 378.5 C 1944.98877 382.349854 1943.277588 389.324951 1942.343018 394 C 1940.809082 401.675537 1940.609619 415.060791 1940.288086 532 C 1940.070557 611.003662 1939.554688 662.907715 1938.964844 665.110352 C 1938.43335 667.095947 1936.25708 670.698486 1934.12915 673.115967 C 1931.586914 676.00415 1928.586426 678.111328 1925.380127 679.260742 C 1921.135254 680.782227 1916.520996 681.009277 1889.929199 681.005127 Z M 1170.5 131.910645 C 1166.099976 131.870117 1159.467896 131.186035 1155.762085 130.390381 C 1152.056274 129.594727 1145.756226 127.419434 1141.762085 125.556396 C 1137.767944 123.693359 1131.825195 119.993652 1128.55603 117.334473 C 1125.286865 114.675537 1120.704346 110.024902 1118.372803 107 C 1116.04126 103.975098 1112.806152 98.800049 1111.183838 95.5 C 1109.561523 92.199951 1107.401367 86.574951 1106.383545 83 C 1105.04895 78.312744 1104.590698 73.746582 1104.740234 66.626709 C 1104.854248 61.196533 1105.6521 53.996582 1106.513428 50.626709 C 1107.374634 47.25708 1109.871582 40.793213 1112.062134 36.262451 C 1114.679443 30.849365 1118.180298 25.740234 1122.272583 21.361084 C 1125.697632 17.696045 1130.751221 13.200684 1133.502686 11.371338 C 1136.254272 9.541992 1141.398926 6.911133 1144.935425 5.525391 C 1148.471802 4.139404 1154.77063 2.28833 1158.932617 1.411865 C 1164.059204 0.332275 1168.743896 0.017334 1173.456787 0.435303 C 1177.282959 0.774658 1183.106934 1.750244 1186.398926 2.603271 C 1189.690918 3.456299 1195.286255 5.470215 1198.833008 7.078369 C 1202.379761 8.686523 1208.415039 12.533936 1212.244751 15.628174 C 1216.306885 18.9104 1220.870605 23.805176 1223.198853 27.377197 C 1225.393921 30.744629 1228.301758 35.975098 1229.660645 39 C 1231.019653 42.024902 1232.998779 48.100098 1234.058716 52.5 C 1235.118774 56.899902 1235.973755 63.425049 1235.958862 67 C 1235.94397 70.574951 1235.088989 77.05542 1234.059082 81.400879 C 1233.029053 85.746338 1230.456909 92.721436 1228.34314 96.900879 C 1225.536377 102.450928 1222.330566 106.657227 1216.454834 112.5 C 1211.032837 117.891602 1205.988037 121.784912 1200.982544 124.44043 C 1196.897705 126.607666 1190.167969 129.19165 1186.02771 130.182617 C 1181.776001 131.200195 1175.018433 131.952393 1170.5 131.910645 Z"/>
        <path id="path2" fill="#13b8c4" fill-rule="evenodd" stroke="none" opacity="0.863663" d="M 2422.19873 598.87793 C 2417.964355 598.811035 2404.163818 597.283447 2401 597 C 2378.307617 594.967773 2352.479736 578.088135 2345 570 C 2336.920898 561.263672 2316.379883 542.40332 2316.364258 498.579102 C 2316.36377 497.218506 2315.61499 491.941406 2317 482 C 2317.654541 477.301758 2320.296875 470.095215 2322 466 C 2323.703125 461.904785 2327.724609 453.896973 2331 449 C 2334.275391 444.103027 2340.533936 436.556641 2345 432 C 2349.46582 427.443359 2357.015869 421.949219 2361.313232 419.158691 C 2365.610352 416.368164 2372.135498 412.661133 2375.813232 410.920898 C 2379.490967 409.180664 2386.180664 406.846191 2390.679443 405.733154 C 2396.459229 404.303467 2404.293457 403.074219 2413 403 C 2419.776367 402.942383 2427.002197 404.094482 2431.282715 404.820801 C 2435.563477 405.547119 2442.235596 407.219727 2446.109863 408.537354 C 2449.984375 409.855225 2455.481934 412.197266 2458.327148 413.742188 C 2461.172119 415.286865 2466.004395 418.404785 2469.065186 420.67041 C 2472.126221 422.936279 2477.441406 427.857666 2480.876953 431.607178 C 2484.988525 436.094238 2493.116211 443.580322 2498 462 C 2500.360596 470.903076 2501.219238 478.765442 2499 491 C 2496.333252 505.701233 2488 514 2488 514 C 2488 514 2490.285156 508.561768 2490 497 C 2489.814209 489.468262 2487.720947 481.628174 2484 475 C 2479.959961 467.803467 2469.824219 455.629395 2453.359619 451.441406 C 2445.859131 449.533447 2443.247559 448.91748 2436.775391 449.380615 C 2432.526855 449.684814 2425.556152 451.106689 2421.284912 452.540527 C 2417.013916 453.974121 2411.039795 456.654541 2408.009521 458.496582 C 2404.979248 460.338867 2400.110596 464.243164 2397.189941 467.173096 C 2394.096191 470.276855 2390.435791 475.421387 2388.419678 479.5 C 2386.516602 483.350098 2384.236816 490.058594 2383.353516 494.407715 C 2382.239502 499.894043 2381.9021 505.25293 2382.251953 511.907715 C 2382.571533 517.989014 2383.576904 523.948242 2384.998535 528.188477 C 2386.231934 531.867188 2388.874268 537.585449 2390.870605 540.895752 C 2392.866699 544.206055 2396.524902 549.339355 2399 552.303223 C 2401.475098 555.26709 2404.928711 558.828613 2408 561 C 2413.531738 564.910889 2415.06958 565.483887 2418.959961 567.118408 C 2422.850342 568.75293 2429.513428 570.99707 2433.766602 572.105225 C 2438.02002 573.213135 2446.599365 574.386475 2452.832031 574.712646 C 2461.614258 575.171875 2465.993652 574.912354 2472.293213 573.558594 C 2476.763916 572.5979 2483.814453 570.467041 2487.960938 568.82373 C 2492.107422 567.18042 2497.975098 564.516602 2501 562.904297 C 2504.024902 561.291748 2509.391846 557.730225 2512.926025 554.989502 C 2516.460449 552.249023 2521.958252 547.503662 2525.143066 544.444336 C 2528.328125 541.38501 2532.82666 536.770996 2535.139893 534.190918 C 2537.537109 531.51709 2541 526 2541 526 C 2541 526 2537.709473 533.269775 2536 536 C 2535.168945 537.327393 2533.775635 540.011963 2527.546631 548.929932 C 2525.331543 552.101074 2519.483643 558.111572 2514.876465 562.525635 C 2510.269531 566.939453 2502.636475 573.119385 2497.914063 576.258545 C 2493.191895 579.397705 2484.603027 584.223145 2478.827393 586.982178 C 2473.051758 589.740967 2464.781738 592.905029 2460.449219 594.012939 C 2456.116699 595.121094 2447.470215 596.696533 2441.234863 597.513916 C 2434.999268 598.331299 2426.433105 598.945068 2422.19873 598.87793 Z"/>
        <path id="Circle" fill="#13b8c4" fill-rule="evenodd" stroke="none" d="M 1237 66.5 C 1237 29.773071 1207.226929 0 1170.5 0 C 1133.773071 0 1104 29.773071 1104 66.5 C 1104 103.226929 1133.773071 133 1170.5 133 C 1207.226929 133 1237 103.226929 1237 66.5 Z"/>
    </g>
</svg>
